<!-- Created with Inkscape (http://www.inkscape.org/) -->
<svg id="svg2985" xmlns:rdf="http://www.w3.org/1999/02/22-rdf-syntax-ns#" xmlns="http://www.w3.org/2000/svg" viewBox="0 0 48 48" version="1.1" xmlns:cc="http://creativecommons.org/ns#" xmlns:dc="http://purl.org/dc/elements/1.1/">
	<metadata id="metadata2990">
		<rdf:RDF>
			<cc:Work rdf:about="">
				<dc:format>image/svg+xml</dc:format>
				<dc:type rdf:resource="http://purl.org/dc/dcmitype/StillImage"/>
				<dc:title/>
			</cc:Work>
		</rdf:RDF>
	</metadata>
	<g id="layer1">
		<path id="path3219" fill="#666" d="m28.8,1.4734c-2.7,1.9-11,8-11,8l-13.2-7.8c-1-0.5-2.2-0.8-3.1-0.4-1.3,0.6-1.5,1.8-1.5,2.6v31.3c0,1.6,0.9,2.5,1.8,3,0,0,11.1,6.4,14.7,8.6,0.5,0.3,1.4,0.5,2.1-0.1,2.8-2,11.3-8.1,11.3-8.1s11.1,6.4,14,8c1.9,1.1,4-0.7,4-2,0.1-7.6,0.1-31.6,0.1-31.6,0-2-1.1-2.7-1.9-3.2,0,0-10.1-6.4-13.4-8.3-1.6-0.9-3.1-0.5-3.9,0zm-25.8,3.4,13,7.5v30.4l-13.1-7.5,0.1-30.4zm16.2,7.7996,9.8-7.2996v30.6l-9.8,6.9v-30.2zm25.8,30.9-13-7.2v-31.6l13,7.9v30.9z"/>
	</g>
</svg>
